# xmcd
#
# Track frame offsets: 
#        150
#        19303
#        40125
#        58229
#        83041
#        101940
#        123239
#        140533
#        154330
#        175232
#        193591
#
# Disc length: 2979 seconds
#
# Revision: 0
# Processed by: cddbd v1.5.2PL0 Copyright (c) Steve Scherf et al.
# Submitted via: ExactAudioCopy v1.2
#
DISCID=990ba10b
DTITLE=Mighty Sam McClain - Time and Change: Last Recordings
DYEAR=2016
DGENRE=Blues
TTITLE0=Let's Talk (feat. Pat Herlehy)
TTITLE1=Sweet Love (feat. Pat Herlehy)
TTITLE2=Let's Do Something (feat. Pat Herlehy)
TTITLE3=Time and Change (feat. Pat Herlehy)
TTITLE4=Bad Dreams (feat. Pat Herlehy)
TTITLE5=round Every Corner (feat. Pat Herlehy)
TTITLE6=You Broke My Heart (feat. Pat Herlehy)
TTITLE7=Touch Somebody
TTITLE8=Here I Come Again
TTITLE9=Praise (feat. Pat Herlehy)
TTITLE10=Tou Worry Me
EXTD=
EXTT0=
EXTT1=
EXTT2=
EXTT3=
EXTT4=
EXTT5=
EXTT6=
EXTT7=
EXTT8=
EXTT9=
EXTT10=
PLAYORDER=
